<svg width="340" height="340" viewBox="0 0 340 340" fill="none" xmlns="http://www.w3.org/2000/svg">
<path d="M226.23 22.3241C243.154 35.867 245.224 60.8473 230.76 76.9912L82.9836 241.934C69.7462 256.709 47.3203 258.69 31.6976 246.464V246.464C14.5398 233.038 12.3109 207.901 26.8386 191.664L174.509 26.6267C187.873 11.69 210.581 9.80106 226.23 22.3241V22.3241Z" fill="white"/>
<path d="M308.836 94.1344C325.759 107.677 327.829 132.658 313.366 148.802L165.589 313.744C152.352 328.519 129.926 330.5 114.303 318.275V318.275C97.1454 304.848 94.9165 279.711 109.444 263.475L257.114 98.437C270.479 83.5004 293.187 81.6114 308.836 94.1344V94.1344Z" fill="white"/>
<ellipse cx="268.71" cy="293" rx="42.957" ry="47" fill="white"/>
</svg>
