<?xml version="1.0" standalone="no"?><svg xmlns="http://www.w3.org/2000/svg" viewBox="0 0 1440 320"><path fill="#2869FE" fill-opacity="1" d="M0,160L34.3,149.3C68.6,139,137,117,206,112C274.3,107,343,117,411,117.3C480,117,549,107,617,90.7C685.7,75,754,53,823,48C891.4,43,960,53,1029,69.3C1097.1,85,1166,107,1234,133.3C1302.9,160,1371,192,1406,208L1440,224L1440,0L1405.7,0C1371.4,0,1303,0,1234,0C1165.7,0,1097,0,1029,0C960,0,891,0,823,0C754.3,0,686,0,617,0C548.6,0,480,0,411,0C342.9,0,274,0,206,0C137.1,0,69,0,34,0L0,0Z"></path></svg>