<svg width="1381" height="385" viewBox="0 0 1381 385" fill="none" xmlns="http://www.w3.org/2000/svg">
<path d="M466.75 301V81H510.75V263.5H556V301H466.75ZM601.875 303C591.458 303 583.5 300.583 578 295.75C572.583 290.917 568.875 284.292 566.875 275.875C564.875 267.458 563.875 257.917 563.875 247.25C563.875 235.833 565 226.5 567.25 219.25C569.5 211.917 573.333 205.917 578.75 201.25C584.25 196.583 591.792 192.625 601.375 189.375L629.125 179.875V160.625C629.125 150.542 625.833 145.5 619.25 145.5C613.25 145.5 610.25 149.583 610.25 157.75V169H566.75C566.667 168.333 566.625 167.5 566.625 166.5C566.625 165.417 566.625 164.208 566.625 162.875C566.625 144.208 571 131 579.75 123.25C588.583 115.417 602.542 111.5 621.625 111.5C631.625 111.5 640.583 113.292 648.5 116.875C656.417 120.375 662.667 125.583 667.25 132.5C671.917 139.417 674.25 147.958 674.25 158.125V301H629.75V278.75C627.583 286.583 624 292.583 619 296.75C614 300.917 608.292 303 601.875 303ZM619.5 268.25C623.167 268.25 625.667 266.708 627 263.625C628.333 260.542 629 257.208 629 253.625V201.375C622.833 203.875 618.042 207.042 614.625 210.875C611.208 214.625 609.5 220.167 609.5 227.5V251.625C609.5 262.708 612.833 268.25 619.5 268.25ZM766.375 303C759.042 303 753.083 301.208 748.5 297.625C743.917 293.958 740.25 288.417 737.5 281V301H692V81H737.5V133.5C740.25 126.583 744.042 121.208 748.875 117.375C753.792 113.458 760.792 111.5 769.875 111.5C782.125 111.5 790.75 115.958 795.75 124.875C800.833 133.792 803.375 145.458 803.375 159.875V252.125C803.375 261.708 802.042 270.375 799.375 278.125C796.792 285.792 792.75 291.875 787.25 296.375C781.833 300.792 774.875 303 766.375 303ZM747.875 268.125C752.625 268.125 755.5 265.792 756.5 261.125C757.5 256.458 758 250.708 758 243.875V170.625C758 163.708 757.5 157.958 756.5 153.375C755.5 148.708 752.667 146.375 748 146.375C743.167 146.375 740.208 148.75 739.125 153.5C738.042 158.167 737.5 163.875 737.5 170.625V243.875C737.5 250.625 738.042 256.375 739.125 261.125C740.208 265.792 743.125 268.125 747.875 268.125ZM820.75 301V81H908.75V123.875H865V158.875H906.5V201.25H865V301H820.75ZM976.75 303C939.417 303 920.75 283.625 920.75 244.875V169.625C920.75 151.958 925.708 137.875 935.625 127.375C945.542 116.792 959.25 111.5 976.75 111.5C994.333 111.5 1008.08 116.792 1018 127.375C1027.92 137.875 1032.88 151.958 1032.88 169.625V244.875C1032.88 283.625 1014.17 303 976.75 303ZM976.75 268.5C980.5 268.5 983.167 267.167 984.75 264.5C986.417 261.75 987.25 258.292 987.25 254.125V162.5C987.25 151.583 983.75 146.125 976.75 146.125C969.75 146.125 966.25 151.583 966.25 162.5V254.125C966.25 258.292 967.042 261.75 968.625 264.5C970.292 267.167 973 268.5 976.75 268.5ZM1049.5 301V113.5H1095V134.375C1097.17 127.125 1101 121.458 1106.5 117.375C1112 113.292 1118.92 111.25 1127.25 111.25V148.625C1123.58 148.625 1119.21 149.042 1114.12 149.875C1109.04 150.625 1104.58 151.708 1100.75 153.125C1096.92 154.458 1095 155.958 1095 157.625V301H1049.5ZM1133 301L1154.25 81H1228.88L1249.75 301H1208.12L1205 265.5H1178.5L1175.75 301H1133ZM1181.62 230.375H1201.62L1192 118.5H1190L1181.62 230.375ZM1262.5 301V81H1308V301H1262.5ZM1326 301V81H1371.5V301H1326Z" fill="white"/>
<path d="M244.686 43.2494C264.165 57.4968 266.482 85.7057 249.588 102.94L88.7507 267.018C75.1127 280.931 53.3713 282.832 37.5249 271.498V271.498C17.8028 257.393 15.3117 229.019 32.2741 211.692L193.005 47.5106C206.778 33.4417 228.794 31.6264 244.686 43.2494V43.2494Z" fill="white"/>
<path d="M335.066 115.06C354.546 129.307 356.862 157.516 339.968 174.751L179.131 338.828C165.493 352.741 143.752 354.643 127.905 343.309V343.309C108.183 329.203 105.692 300.829 122.654 283.503L283.385 119.321C297.158 105.252 319.175 103.437 335.066 115.06V115.06Z" fill="white"/>
<circle cx="294" cy="316" r="47" fill="white"/>
</svg>
